<svg width="36" height="36" viewBox="0 0 36 36" fill="none" xmlns="http://www.w3.org/2000/svg" transform="rotate(90)">
  <path d="M33.515 18c1.373 0 2.503-1.118 2.314-2.477A18 18 0 0 0 20.477.171C19.117-.018 18 1.112 18 2.485c0 1.372 1.122 2.46 2.47 2.72A13.03 13.03 0 0 1 30.794 15.53c.26 1.348 1.349 2.47 2.721 2.47" fill="#70A2F5"/>
</svg>

<!-- top right -->
<svg width="36" height="36" viewBox="0 0 36 36" fill="none" xmlns="http://www.w3.org/2000/svg">
<g id=".spinner">
<path id="Ellipse" d="M33.5152 18C34.8875 18 36.0176 16.8823 35.8288 15.5231C35.6187 14.011 35.2166 12.5283 34.6298 11.1117C33.7252 8.92784 32.3994 6.94353 30.7279 5.27208C29.0565 3.60062 27.0722 2.27475 24.8883 1.37017C23.4717 0.783374 21.989 0.381311 20.4769 0.171234C19.1177 -0.0176059 18 1.11247 18 2.48478C18 3.85709 19.1223 4.94566 20.4698 5.20576C21.3299 5.37181 22.1733 5.62458 22.9865 5.96145C24.5675 6.61629 26.0039 7.5761 27.2139 8.78609C28.4239 9.99608 29.3837 11.4325 30.0386 13.0135C30.3754 13.8267 30.6282 14.6701 30.7942 15.5302C31.0543 16.8777 32.1429 18 33.5152 18Z" fill="#70A2F5"/>
</g>
</svg>

<!-- bottom right -->
<svg width="36" height="36" viewBox="0 0 36 36" fill="none" xmlns="http://www.w3.org/2000/svg" version="1.1" xmlns:xlink="http://www.w3.org/1999/xlink" transform="matrix(1,-1.2246467991473532e-16,-1.2246467991473532e-16,-1,0,0)">
  <g id=".spinner">
    <path id="Ellipse" d="M33.5152 18C34.8875 18 36.0176 16.8823 35.8288 15.5231C35.6187 14.011 35.2166 12.5283 34.6298 11.1117C33.7252 8.92784 32.3994 6.94353 30.7279 5.27208C29.0565 3.60062 27.0722 2.27475 24.8883 1.37017C23.4717 0.783374 21.989 0.381311 20.4769 0.171234C19.1177 -0.0176059 18 1.11247 18 2.48478C18 3.85709 19.1223 4.94566 20.4698 5.20576C21.3299 5.37181 22.1733 5.62458 22.9865 5.96145C24.5675 6.61629 26.0039 7.5761 27.2139 8.78609C28.4239 9.99608 29.3837 11.4325 30.0386 13.0135C30.3754 13.8267 30.6282 14.6701 30.7942 15.5302C31.0543 16.8777 32.1429 18 33.5152 18Z" fill="#70A2F5"></path>
  </g>
</svg>

<!-- bottom left -->
<svg width="36" height="36" viewBox="0 0 36 36" fill="none" xmlns="http://www.w3.org/2000/svg" version="1.1" xmlns:xlink="http://www.w3.org/1999/xlink" transform="matrix(-1,1.2246467991473532e-16,1.2246467991473532e-16,-1,0,0)">
  <g id=".spinner">
    <path id="Ellipse" d="M33.5152 18C34.8875 18 36.0176 16.8823 35.8288 15.5231C35.6187 14.011 35.2166 12.5283 34.6298 11.1117C33.7252 8.92784 32.3994 6.94353 30.7279 5.27208C29.0565 3.60062 27.0722 2.27475 24.8883 1.37017C23.4717 0.783374 21.989 0.381311 20.4769 0.171234C19.1177 -0.0176059 18 1.11247 18 2.48478C18 3.85709 19.1223 4.94566 20.4698 5.20576C21.3299 5.37181 22.1733 5.62458 22.9865 5.96145C24.5675 6.61629 26.0039 7.5761 27.2139 8.78609C28.4239 9.99608 29.3837 11.4325 30.0386 13.0135C30.3754 13.8267 30.6282 14.6701 30.7942 15.5302C31.0543 16.8777 32.1429 18 33.5152 18Z" fill="#70A2F5"></path>
  </g>
</svg>

<!-- top left -->
<svg width="36" height="36" viewBox="0 0 36 36" fill="none" xmlns="http://www.w3.org/2000/svg" version="1.1" xmlns:xlink="http://www.w3.org/1999/xlink" transform="matrix(-1,0,0,1,0,0)">
  <g id=".spinner">
    <path id="Ellipse" d="M33.5152 18C34.8875 18 36.0176 16.8823 35.8288 15.5231C35.6187 14.011 35.2166 12.5283 34.6298 11.1117C33.7252 8.92784 32.3994 6.94353 30.7279 5.27208C29.0565 3.60062 27.0722 2.27475 24.8883 1.37017C23.4717 0.783374 21.989 0.381311 20.4769 0.171234C19.1177 -0.0176059 18 1.11247 18 2.48478C18 3.85709 19.1223 4.94566 20.4698 5.20576C21.3299 5.37181 22.1733 5.62458 22.9865 5.96145C24.5675 6.61629 26.0039 7.5761 27.2139 8.78609C28.4239 9.99608 29.3837 11.4325 30.0386 13.0135C30.3754 13.8267 30.6282 14.6701 30.7942 15.5302C31.0543 16.8777 32.1429 18 33.5152 18Z" fill="#70A2F5"></path>
  </g>
</svg>